<svg width="2136" height="512" viewBox="0 0 2136 512" fill="none" xmlns="http://www.w3.org/2000/svg">
<g clip-path="url(#clip0_929_18)">
<path fill-rule="evenodd" clip-rule="evenodd" d="M0 0H168.224L346.54 178.917L256.001 269.226L0 0Z" fill="#007BFF"/>
<path fill-rule="evenodd" clip-rule="evenodd" d="M388.463 142.588L512 15.0001V512.002H388.463V142.588Z" fill="#0DB7FF"/>
<path fill-rule="evenodd" clip-rule="evenodd" d="M0 -0.00012207L120.319 125.36V511.999H0V-0.00012207Z" fill="#4E00FF"/>
</g>
<path d="M649.408 351V170.264H689.6V351H649.408ZM761.28 351V170.264H801.728V351H761.28ZM673.472 275.48V240.664H774.592V275.48H673.472ZM922.68 354.072C909.197 354.072 896.653 351.683 885.048 346.904C873.443 342.125 863.288 335.469 854.584 326.936C846.051 318.403 839.309 308.504 834.36 297.24C829.581 285.805 827.192 273.517 827.192 260.376C827.192 247.064 829.581 234.776 834.36 223.512C839.139 212.248 845.795 202.435 854.328 194.072C863.032 185.539 873.101 178.968 884.536 174.36C896.141 169.581 908.685 167.192 922.168 167.192C935.821 167.192 948.365 169.581 959.8 174.36C971.405 178.968 981.475 185.539 990.008 194.072C998.712 202.435 1005.45 212.333 1010.23 223.768C1015.01 235.032 1017.4 247.32 1017.4 260.632C1017.4 273.773 1015.01 286.061 1010.23 297.496C1005.45 308.76 998.712 318.659 990.008 327.192C981.475 335.555 971.491 342.125 960.056 346.904C948.621 351.683 936.163 354.072 922.68 354.072ZM1003.32 365.336L918.84 280.856L942.136 257.56L1026.62 342.04L1003.32 365.336ZM922.168 317.464C933.091 317.464 942.563 315.075 950.584 310.296C958.605 305.517 964.835 298.861 969.272 290.328C973.88 281.624 976.184 271.64 976.184 260.376C976.184 251.843 974.904 244.163 972.344 237.336C969.784 230.339 966.115 224.365 961.336 219.416C956.557 214.296 950.84 210.456 944.184 207.896C937.699 205.165 930.36 203.8 922.168 203.8C911.416 203.8 902.029 206.189 894.008 210.968C885.987 215.576 879.672 222.147 875.064 230.68C870.627 239.043 868.408 248.941 868.408 260.376C868.408 268.909 869.688 276.675 872.248 283.672C874.808 290.669 878.477 296.728 883.256 301.848C888.035 306.797 893.667 310.637 900.152 313.368C906.808 316.099 914.147 317.464 922.168 317.464ZM1047.66 351V170.264H1087.85V351H1047.66ZM1078.63 351V315.672H1167.98V351H1078.63ZM1237.54 353.56C1226.11 353.56 1215.87 350.744 1206.82 345.112C1197.95 339.48 1190.86 331.8 1185.57 322.072C1180.45 312.344 1177.89 301.251 1177.89 288.792C1177.89 276.333 1180.45 265.24 1185.57 255.512C1190.86 245.784 1197.95 238.104 1206.82 232.472C1215.87 226.84 1226.11 224.024 1237.54 224.024C1245.9 224.024 1253.41 225.645 1260.07 228.888C1266.9 232.131 1272.44 236.653 1276.71 242.456C1280.98 248.088 1283.37 254.573 1283.88 261.912V315.672C1283.37 323.011 1280.98 329.581 1276.71 335.384C1272.61 341.016 1267.15 345.453 1260.33 348.696C1253.5 351.939 1245.9 353.56 1237.54 353.56ZM1245.48 318.232C1253.84 318.232 1260.58 315.501 1265.7 310.04C1270.82 304.408 1273.38 297.325 1273.38 288.792C1273.38 282.989 1272.19 277.869 1269.8 273.432C1267.58 268.995 1264.34 265.581 1260.07 263.192C1255.97 260.632 1251.2 259.352 1245.73 259.352C1240.27 259.352 1235.41 260.632 1231.14 263.192C1227.05 265.581 1223.72 268.995 1221.16 273.432C1218.77 277.869 1217.57 282.989 1217.57 288.792C1217.57 294.424 1218.77 299.459 1221.16 303.896C1223.55 308.333 1226.88 311.832 1231.14 314.392C1235.41 316.952 1240.19 318.232 1245.48 318.232ZM1271.85 351V317.464L1277.73 287.256L1271.85 257.048V226.584H1310.25V351H1271.85ZM1393.12 353.816C1381.69 353.816 1371.53 351.512 1362.66 346.904C1353.95 342.125 1347.13 335.64 1342.18 327.448C1337.23 319.085 1334.75 309.528 1334.75 298.776V226.584H1373.92V298.264C1373.92 302.531 1374.6 306.2 1375.97 309.272C1377.5 312.344 1379.72 314.733 1382.62 316.44C1385.53 318.147 1389.02 319 1393.12 319C1398.92 319 1403.53 317.208 1406.94 313.624C1410.36 309.869 1412.06 304.749 1412.06 298.264V226.584H1451.23V298.52C1451.23 309.443 1448.76 319.085 1443.81 327.448C1438.86 335.64 1432.03 342.125 1423.33 346.904C1414.62 351.512 1404.55 353.816 1393.12 353.816ZM1558 351V280.088C1558 273.603 1555.95 268.397 1551.86 264.472C1547.93 260.376 1542.9 258.328 1536.75 258.328C1532.49 258.328 1528.73 259.267 1525.49 261.144C1522.25 262.851 1519.69 265.411 1517.81 268.824C1515.93 272.067 1514.99 275.821 1514.99 280.088L1499.89 272.664C1499.89 262.936 1502.02 254.403 1506.29 247.064C1510.55 239.725 1516.44 234.093 1523.95 230.168C1531.63 226.072 1540.25 224.024 1549.81 224.024C1559.02 224.024 1567.13 226.243 1574.13 230.68C1581.3 234.947 1586.93 240.664 1591.02 247.832C1595.12 255 1597.17 262.851 1597.17 271.384V351H1558ZM1475.82 351V226.584H1514.99V351H1475.82ZM1682.48 353.816C1669.68 353.816 1658.08 351 1647.67 345.368C1637.26 339.736 1629.07 331.971 1623.09 322.072C1617.12 312.173 1614.13 301.08 1614.13 288.792C1614.13 276.333 1617.12 265.24 1623.09 255.512C1629.24 245.613 1637.51 237.848 1647.92 232.216C1658.33 226.584 1670.03 223.768 1683 223.768C1692.72 223.768 1701.6 225.475 1709.62 228.888C1717.81 232.131 1725.07 237.08 1731.38 243.736L1706.29 268.824C1703.39 265.581 1699.98 263.192 1696.05 261.656C1692.3 260.12 1687.95 259.352 1683 259.352C1677.36 259.352 1672.33 260.632 1667.89 263.192C1663.63 265.581 1660.21 268.995 1657.65 273.432C1655.26 277.699 1654.07 282.733 1654.07 288.536C1654.07 294.339 1655.26 299.459 1657.65 303.896C1660.21 308.333 1663.71 311.832 1668.15 314.392C1672.59 316.952 1677.53 318.232 1683 318.232C1688.12 318.232 1692.64 317.379 1696.56 315.672C1700.66 313.795 1704.16 311.235 1707.06 307.992L1731.89 333.08C1725.41 339.907 1718.07 345.112 1709.88 348.696C1701.68 352.109 1692.55 353.816 1682.48 353.816ZM1831.5 351V280.088C1831.5 273.603 1829.45 268.397 1825.36 264.472C1821.43 260.376 1816.4 258.328 1810.25 258.328C1805.99 258.328 1802.23 259.267 1798.99 261.144C1795.75 262.851 1793.19 265.411 1791.31 268.824C1789.43 272.067 1788.49 275.821 1788.49 280.088L1773.39 272.664C1773.39 262.936 1775.44 254.403 1779.53 247.064C1783.63 239.725 1789.35 234.093 1796.68 230.168C1804.02 226.072 1812.47 224.024 1822.03 224.024C1831.76 224.024 1840.29 226.072 1847.63 230.168C1854.97 234.093 1860.6 239.64 1864.52 246.808C1868.62 253.805 1870.67 261.997 1870.67 271.384V351H1831.5ZM1749.32 351V165.144H1788.49V351H1749.32ZM1957.26 353.816C1943.78 353.816 1931.75 351.085 1921.17 345.624C1910.76 339.992 1902.57 332.227 1896.59 322.328C1890.62 312.429 1887.63 301.251 1887.63 288.792C1887.63 276.333 1890.53 265.24 1896.34 255.512C1902.31 245.613 1910.33 237.848 1920.4 232.216C1930.47 226.584 1941.82 223.768 1954.45 223.768C1966.74 223.768 1977.57 226.413 1986.96 231.704C1996.35 236.995 2003.69 244.333 2008.98 253.72C2014.44 263.107 2017.17 273.859 2017.17 285.976C2017.17 288.195 2017 290.584 2016.66 293.144C2016.49 295.533 2016.06 298.349 2015.38 301.592L1908.11 301.848V274.968L1998.74 274.712L1981.84 285.976C1981.67 278.808 1980.56 272.92 1978.51 268.312C1976.46 263.533 1973.39 259.949 1969.3 257.56C1965.37 255 1960.51 253.72 1954.7 253.72C1948.56 253.72 1943.18 255.171 1938.58 258.072C1934.14 260.803 1930.64 264.728 1928.08 269.848C1925.69 274.968 1924.5 281.197 1924.5 288.536C1924.5 295.875 1925.78 302.189 1928.34 307.48C1931.07 312.6 1934.82 316.611 1939.6 319.512C1944.55 322.243 1950.35 323.608 1957.01 323.608C1963.15 323.608 1968.7 322.584 1973.65 320.536C1978.6 318.317 1982.95 315.075 1986.7 310.808L2008.21 332.312C2002.06 339.48 1994.64 344.856 1985.94 348.44C1977.23 352.024 1967.67 353.816 1957.26 353.816ZM2036.07 351V226.584H2075.24V351H2036.07ZM2075.24 282.648L2058.86 269.848C2062.1 255.341 2067.56 244.077 2075.24 236.056C2082.92 228.035 2093.59 224.024 2107.24 224.024C2113.22 224.024 2118.42 224.963 2122.86 226.84C2127.47 228.547 2131.48 231.277 2134.89 235.032L2111.59 264.472C2109.89 262.595 2107.75 261.144 2105.19 260.12C2102.63 259.096 2099.73 258.584 2096.49 258.584C2090 258.584 2084.8 260.632 2080.87 264.728C2077.12 268.653 2075.24 274.627 2075.24 282.648Z" fill="white"/>
<defs>
<clipPath id="clip0_929_18">
<rect width="512" height="512" fill="white"/>
</clipPath>
</defs>
</svg>
