<svg width="25" height="24" viewBox="0 0 25 24" fill="none" xmlns="http://www.w3.org/2000/svg">
<g clip-path="url(#clip0_1374_687)">
<path d="M12.7522 0.00399737C11.0859 -0.0401401 9.4291 0.26952 7.89144 0.912512C6.35377 1.5555 4.97022 2.51719 3.83222 3.734C2.93427 4.63723 2.20003 5.68953 1.66222 6.844C0.873185 8.45158 0.47571 10.2227 0.502221 12.013C0.502221 13.433 0.672221 14.513 1.10222 15.783C1.34222 16.542 1.87222 17.682 2.27222 18.312C3.2401 19.8464 4.53549 21.1476 6.06554 22.1225C7.5956 23.0975 9.32241 23.7219 11.1222 23.951C11.5622 24.001 13.6622 24.021 13.8822 23.971C14.0822 23.931 14.1022 24.071 13.6222 22.271L13.2622 20.901L12.2522 20.841C10.3738 20.8291 8.55231 20.1961 7.07222 19.041C6.57033 18.6981 6.13068 18.2719 5.77222 17.781C5.77222 17.731 6.11222 17.501 6.51222 17.281C7.44781 16.696 8.40874 16.1525 9.39222 15.652C9.42222 15.652 9.89222 16.102 10.4522 16.632L11.4522 17.602L13.5222 17.172L15.5822 16.742L17.0522 15.272C17.8522 14.472 18.5322 13.772 18.5322 13.752C18.5322 13.662 18.1122 12.122 18.0722 12.052C18.0322 11.992 17.8722 12.022 17.0522 12.232C16.5222 12.362 15.8522 12.532 15.6022 12.632L15.1222 12.782L14.5922 13.312L14.0622 13.842L13.1322 13.942L12.2022 14.012L11.6822 13.512C11.1614 13.0849 10.819 12.4786 10.7222 11.812L10.5922 11.212L11.0222 10.642C11.7022 9.742 11.7022 9.742 12.4822 9.542C12.8822 9.442 13.1322 9.342 13.3122 9.212C13.4422 9.113 13.9622 8.633 14.4522 8.143L15.3522 7.243L14.6522 6.543L13.9522 5.843L12.0022 6.383C10.9322 6.683 10.0422 6.913 10.0322 6.913C10.0022 6.913 7.80222 9.393 7.40222 9.883L7.11222 10.233L7.39222 11.263C7.55222 11.823 7.69222 12.423 7.70222 12.603L7.73222 12.903L7.39222 13.133C7.02222 13.363 5.17222 14.433 4.55222 14.763C4.19222 14.963 4.18222 14.963 4.11222 14.863C4.03222 14.763 3.88222 14.263 3.79222 13.833C3.61222 12.973 3.62222 11.083 3.81222 10.103C4.21417 8.25473 5.19847 6.58413 6.62047 5.33673C8.04247 4.08933 9.82715 3.33093 11.7122 3.173C12.1422 3.143 12.4822 3.093 12.4922 3.073C12.5522 2.903 12.9922 0.0739974 12.9622 0.0339974C12.9522 0.0139974 12.8622 0.0139974 12.7622 0.00399737H12.7522ZM16.4322 0.673997C16.2322 0.673997 16.1322 0.773997 16.0622 1.054C16.0022 1.284 15.6022 3.474 15.6022 3.574C15.6022 3.614 15.7022 3.684 15.8222 3.734C16.9502 4.18017 17.9697 4.86209 18.8122 5.734C19.8047 6.68872 20.5466 7.87332 20.9722 9.183C21.2975 10.0787 21.4337 11.0321 21.3722 11.983C21.3722 13.053 21.3722 13.253 21.2722 13.713C20.9754 15.0853 20.3739 16.3734 19.5122 17.482C19.1922 17.882 18.5322 18.542 18.1422 18.862C17.7622 19.182 16.6022 19.962 16.4422 20.002C16.3422 20.032 16.3422 20.062 16.3722 20.262C16.4022 20.442 17.0122 22.822 17.0722 23.042L17.1322 23.102C19.0531 22.2954 20.7323 21.0056 22.0063 19.3584C23.2803 17.7111 24.1057 15.7625 24.4022 13.702C24.5322 12.932 24.5322 11.122 24.4022 10.302C24.149 8.53545 23.5029 6.84801 22.5113 5.36361C21.5198 3.87922 20.2079 2.63556 18.6722 1.724C17.9722 1.304 16.6222 0.663997 16.4222 0.663997L16.4322 0.673997Z" fill="#1BD96A"/>
</g>
<defs>
<clipPath id="clip0_1374_687">
<rect width="24" height="24" fill="white" transform="translate(0.5)"/>
</clipPath>
</defs>
</svg>
