<svg width="1174" height="512" viewBox="0 0 1174 512" fill="none" xmlns="http://www.w3.org/2000/svg">
<g clip-path="url(#clip0_929_19)">
<path fill-rule="evenodd" clip-rule="evenodd" d="M0 0H168.224L346.54 178.917L256.001 269.226L0 0Z" fill="#007BFF"/>
<path fill-rule="evenodd" clip-rule="evenodd" d="M388.463 142.588L512 15.0001V512.002H388.463V142.588Z" fill="#0DB7FF"/>
<path fill-rule="evenodd" clip-rule="evenodd" d="M0 -0.00012207L120.319 125.36V511.999H0V-0.00012207Z" fill="#4E00FF"/>
</g>
<path d="M649.408 351V170.264H689.6V351H649.408ZM761.28 351V170.264H801.728V351H761.28ZM673.472 275.48V240.664H774.592V275.48H673.472ZM922.68 354.072C909.197 354.072 896.653 351.683 885.048 346.904C873.443 342.125 863.288 335.469 854.584 326.936C846.051 318.403 839.309 308.504 834.36 297.24C829.581 285.805 827.192 273.517 827.192 260.376C827.192 247.064 829.581 234.776 834.36 223.512C839.139 212.248 845.795 202.435 854.328 194.072C863.032 185.539 873.101 178.968 884.536 174.36C896.141 169.581 908.685 167.192 922.168 167.192C935.821 167.192 948.365 169.581 959.8 174.36C971.405 178.968 981.475 185.539 990.008 194.072C998.712 202.435 1005.45 212.333 1010.23 223.768C1015.01 235.032 1017.4 247.32 1017.4 260.632C1017.4 273.773 1015.01 286.061 1010.23 297.496C1005.45 308.76 998.712 318.659 990.008 327.192C981.475 335.555 971.491 342.125 960.056 346.904C948.621 351.683 936.163 354.072 922.68 354.072ZM1003.32 365.336L918.84 280.856L942.136 257.56L1026.62 342.04L1003.32 365.336ZM922.168 317.464C933.091 317.464 942.563 315.075 950.584 310.296C958.605 305.517 964.835 298.861 969.272 290.328C973.88 281.624 976.184 271.64 976.184 260.376C976.184 251.843 974.904 244.163 972.344 237.336C969.784 230.339 966.115 224.365 961.336 219.416C956.557 214.296 950.84 210.456 944.184 207.896C937.699 205.165 930.36 203.8 922.168 203.8C911.416 203.8 902.029 206.189 894.008 210.968C885.987 215.576 879.672 222.147 875.064 230.68C870.627 239.043 868.408 248.941 868.408 260.376C868.408 268.909 869.688 276.675 872.248 283.672C874.808 290.669 878.477 296.728 883.256 301.848C888.035 306.797 893.667 310.637 900.152 313.368C906.808 316.099 914.147 317.464 922.168 317.464ZM1047.66 351V170.264H1087.85V351H1047.66ZM1078.63 351V315.672H1167.98V351H1078.63Z" fill="white"/>
<defs>
<clipPath id="clip0_929_19">
<rect width="512" height="512" fill="white"/>
</clipPath>
</defs>
</svg>
