<svg width="40" height="38" viewBox="0 0 40 38" fill="none" xmlns="http://www.w3.org/2000/svg">
<path d="M14 6C14 2.68629 16.6863 0 20 0C23.3137 0 26 2.68629 26 6C26 9.31371 23.3137 12 20 12C16.6863 12 14 9.31371 14 6ZM33 2C30.2386 2 28 4.23858 28 7C28 9.76142 30.2386 12 33 12C35.7614 12 38 9.76142 38 7C38 4.23858 35.7614 2 33 2ZM7 2C4.23858 2 2 4.23858 2 7C2 9.76142 4.23858 12 7 12C9.76142 12 12 9.76142 12 7C12 4.23858 9.76142 2 7 2ZM15.25 14C12.9028 14 11 15.9028 11 18.25V29C11 33.9706 15.0294 38 20 38C24.9706 38 29 33.9706 29 29V18.25C29 15.9028 27.0972 14 24.75 14H15.25ZM9 18.25C9 16.6492 9.60179 15.189 10.5915 14.0833C10.3195 14.0287 10.0381 14 9.75 14H4.25C1.90279 14 0 15.9028 0 18.25V28C0 31.866 3.13401 35 7 35C8.1904 35 9.31139 34.7029 10.2929 34.1787C9.46778 32.6354 9 30.8723 9 29V18.25ZM31 29C31 30.8723 30.5322 32.6354 29.7071 34.1787C30.6886 34.7029 31.8096 35 33 35C36.866 35 40 31.866 40 28V18.25C40 15.9028 38.0972 14 35.75 14H30.25C29.9619 14 29.6805 14.0287 29.4085 14.0833C30.3982 15.189 31 16.6492 31 18.25V29Z" fill="#212121"/>
</svg>
