<svg width="20" height="20" viewBox="0 0 20 20" fill="none" xmlns="http://www.w3.org/2000/svg">
<path d="M11.4089 0.513009C10.5053 0.146705 9.49466 0.146705 8.59111 0.513009L6.40058 1.40106L15.9928 5.13136L19.3671 3.82763C19.2312 3.7149 19.0769 3.62165 18.9075 3.55298L11.4089 0.513009ZM20 5.19118L10.7498 8.76513V19.6883C10.9736 19.6426 11.1943 19.5762 11.4089 19.4892L18.9075 16.4493C19.5679 16.1815 20 15.5401 20 14.8275V5.19118ZM9.24979 19.6882V8.76513L0 5.19134V14.8275C0 15.5401 0.432107 16.1815 1.09252 16.4493L8.59111 19.4892C8.80559 19.5762 9.0261 19.6425 9.24979 19.6882ZM0.632727 3.82774L9.99979 7.44684L13.9168 5.93346L4.37434 2.22251L1.09252 3.55298C0.923077 3.62167 0.768667 3.71496 0.632727 3.82774Z" fill="#212121"/>
</svg>
