<svg width="40" height="40" viewBox="0 0 40 40" fill="none" xmlns="http://www.w3.org/2000/svg">
<path d="M20 0C31.0457 0 40 8.9543 40 20C40 31.0457 31.0457 40 20 40C8.95431 40 0 31.0457 0 20C0 8.9543 8.95431 0 20 0ZM28.6339 13.6161C28.1783 13.1605 27.4585 13.1301 26.9676 13.525L26.8661 13.6161L16.75 23.7322L13.1339 20.1161C12.6457 19.628 11.8543 19.628 11.3661 20.1161C10.9105 20.5717 10.8801 21.2915 11.275 21.7824L11.3661 21.8839L15.8661 26.3839C16.3217 26.8395 17.0416 26.8699 17.5324 26.475L17.6339 26.3839L28.6339 15.3839C29.122 14.8957 29.122 14.1043 28.6339 13.6161Z" fill="#212121"/>
</svg>
