<svg width="14" height="14" viewBox="0 0 14 14" fill="none" xmlns="http://www.w3.org/2000/svg">
<path d="M2.64645 6.14645C2.84171 5.95118 3.15829 5.95118 3.35355 6.14645L5.35355 8.14645C5.44732 8.24022 5.5 8.36739 5.5 8.5C5.5 8.63261 5.44732 8.75978 5.35355 8.85355L3.35355 10.8536C3.15829 11.0488 2.84171 11.0488 2.64645 10.8536C2.45118 10.6583 2.45118 10.3417 2.64645 10.1464L4.29289 8.5L2.64645 6.85355C2.45118 6.65829 2.45118 6.34171 2.64645 6.14645ZM11 10H6.5C6.22386 10 6 10.2239 6 10.5C6 10.7761 6.22386 11 6.5 11H11C11.2761 11 11.5 10.7761 11.5 10.5C11.5 10.2239 11.2761 10 11 10ZM0 2.5C0 1.11929 1.11929 0 2.5 0H11.5C12.8807 0 14 1.11929 14 2.5V11.5C14 12.8807 12.8807 14 11.5 14H2.5C1.11929 14 0 12.8807 0 11.5V2.5ZM1.5 4V11.25C1.5 11.9404 2.05964 12.5 2.75 12.5H11.25C11.9404 12.5 12.5 11.9404 12.5 11.25V4H1.5Z" fill="#212121"/>
</svg>
