<svg width="17" height="20" viewBox="0 0 17 20" fill="none" xmlns="http://www.w3.org/2000/svg">
<path d="M2.01501 2.62704L2.01221 4.75V15.2542C2.01221 17.0491 3.46728 18.5042 5.26221 18.5042L13.8785 18.5045C13.5695 19.3782 12.7362 20.0042 11.7566 20.0042H5.26221C2.63885 20.0042 0.512207 17.8776 0.512207 15.2542V4.75C0.512207 3.76929 1.13965 2.93512 2.01501 2.62704ZM14.2622 0C15.5048 0 16.5122 1.00736 16.5122 2.25V15.25C16.5122 16.4926 15.5048 17.5 14.2622 17.5H5.26221C4.01957 17.5 3.01221 16.4926 3.01221 15.25V2.25C3.01221 1.00736 4.01957 0 5.26221 0H14.2622Z" fill="white"/>
</svg>
