<svg width="28" height="28" viewBox="0 0 28 28" fill="none" xmlns="http://www.w3.org/2000/svg">
<path d="M11.8461 0.757348C13.2325 0.224113 14.7675 0.224113 16.1539 0.757348L26.0769 4.57391C27.2355 5.01952 28 6.13263 28 7.37395V20.6268C28 21.8681 27.2355 22.9812 26.0769 23.4268L16.1539 27.2433C14.7675 27.7766 13.2325 27.7766 11.8461 27.2434L1.92306 23.4268C0.764488 22.9812 0 21.8681 0 20.6268V7.37395C0 6.13263 0.764487 5.01952 1.92306 4.57391L11.8461 0.757348ZM7.39418 8.08111C6.88655 7.86356 6.29867 8.09871 6.08111 8.60634C5.86356 9.11397 6.09871 9.70185 6.60634 9.9194L13.0003 12.6597V19.0003C13.0003 19.5525 13.448 20.0003 14.0003 20.0003C14.5525 20.0003 15.0003 19.5525 15.0003 19.0003V12.6597L21.3942 9.9194C21.9018 9.70185 22.137 9.11397 21.9194 8.60634C21.7018 8.09871 21.114 7.86356 20.6063 8.08111L14.0003 10.9123L7.39418 8.08111Z" fill="#212121"/>
</svg>
