<svg width="26" height="17" viewBox="0 0 26 17" fill="none" xmlns="http://www.w3.org/2000/svg">
<path fill-rule="evenodd" clip-rule="evenodd" d="M10.9893 0C10.6609 0 10.3458 0.136949 10.1137 0.380982C9.88128 0.624802 9.75088 0.955655 9.75088 1.30059C9.75088 3.35738 9.75088 7.40441 9.75088 10.1061C9.75088 11.5933 8.60284 12.799 7.18668 12.799C5.9257 12.799 4.67285 12.799 4.67285 12.799V16.852H11.3758C11.3758 16.852 11.5861 16.6312 11.8505 16.3534C12.4319 15.7429 13.3744 15.7429 13.9557 16.3534C14.2884 16.7031 14.5713 17 14.5713 17H21.5319V12.799H18.5143C17.9139 12.799 17.3383 12.5485 16.9137 12.1027C16.4892 11.6569 16.2507 11.0523 16.2507 10.4218V10.4213C16.2507 8.9021 16.8254 7.44494 17.8483 6.37068C18.8712 5.29642 20.2587 4.69295 21.7054 4.69295C23.935 4.69295 26.0006 4.69295 26.0006 4.69295V0H10.9893Z" fill="#F16436"/>
<path fill-rule="evenodd" clip-rule="evenodd" d="M0 1.27991H8.32796V7.25275H5.68739C4.17901 7.25275 2.73238 6.62347 1.6658 5.50335C0.599207 4.38323 0 2.86399 0 1.27991Z" fill="#F16436"/>
</svg>
