<svg width="38" height="40" viewBox="0 0 38 40" fill="none" xmlns="http://www.w3.org/2000/svg">
<path d="M15 6.5V7H23V6.5C23 4.29086 21.2091 2.5 19 2.5C16.7909 2.5 15 4.29086 15 6.5ZM12.5 7V6.5C12.5 2.91015 15.4101 0 19 0C22.5899 0 25.5 2.91015 25.5 6.5V7H36.75C37.4404 7 38 7.55964 38 8.25C38 8.94036 37.4404 9.5 36.75 9.5H33.8325L31.8329 33.3556C31.518 37.1117 28.3775 40 24.6082 40H13.3923C9.62302 40 6.48252 37.1118 6.1676 33.3557L4.16749 9.5H1.25C0.559644 9.5 0 8.94036 0 8.25C0 7.55964 0.559644 7 1.25 7H12.5ZM16.5 16.25C16.5 15.5596 15.9404 15 15.25 15C14.5596 15 14 15.5596 14 16.25V30.75C14 31.4404 14.5596 32 15.25 32C15.9404 32 16.5 31.4404 16.5 30.75V16.25ZM22.75 15C22.0596 15 21.5 15.5596 21.5 16.25V30.75C21.5 31.4404 22.0596 32 22.75 32C23.4404 32 24 31.4404 24 30.75V16.25C24 15.5596 23.4404 15 22.75 15Z" fill="#212121"/>
</svg>
