<svg width="28" height="36" viewBox="0 0 28 36" fill="none" xmlns="http://www.w3.org/2000/svg">
<path d="M2.25 32.5H25.75C26.7165 32.5 27.5 33.2835 27.5 34.25C27.5 35.1682 26.7929 35.9212 25.8935 35.9942L25.75 36H2.25C1.2835 36 0.5 35.2165 0.5 34.25C0.5 33.3318 1.20711 32.5788 2.10647 32.5058L2.25 32.5H25.75H2.25ZM13.6065 0.255801L13.75 0.25C14.6682 0.25 15.4212 0.95711 15.4942 1.85647L15.5 2V23.333L20.2931 18.5407C20.9765 17.8573 22.0846 17.8573 22.768 18.5407C23.4514 19.2242 23.4514 20.3322 22.768 21.0156L14.9898 28.7938C14.3064 29.4772 13.1984 29.4772 12.515 28.7938L4.73678 21.0156C4.05336 20.3322 4.05336 19.2242 4.73678 18.5407C5.42019 17.8573 6.52823 17.8573 7.21165 18.5407L12 23.329V2C12 1.08183 12.7071 0.328808 13.6065 0.255801L13.75 0.25L13.6065 0.255801Z" fill="#212121"/>
</svg>
