<svg width="40" height="40" viewBox="0 0 40 40" fill="none" xmlns="http://www.w3.org/2000/svg">
<path d="M24.0006 25.7684L37.8661 39.6339C38.3543 40.122 39.1457 40.122 39.6339 39.6339C40.122 39.1457 40.122 38.3543 39.6339 37.8661L2.13388 0.366117C1.64573 -0.122039 0.854272 -0.122039 0.366117 0.366116C-0.122039 0.854272 -0.122039 1.64573 0.366116 2.13388L14.2328 16.0006L4.03755 26.1971C3.27584 26.9589 2.73303 27.9115 2.46599 28.9552L0.0390408 38.4402C-0.0703955 38.8679 0.0538947 39.3216 0.366026 39.6338C0.678156 39.946 1.13183 40.0704 1.55956 39.9611L11.0458 37.5366C12.0904 37.2696 13.0439 36.7264 13.8062 35.964L24.0006 25.7684ZM34.0008 15.7669L27.5356 22.2329L17.7679 12.4651L24.2331 5.99913L34.0008 15.7669ZM28.2061 2.02565C30.9033 -0.671926 35.2767 -0.67206 37.9741 2.02535C40.6713 4.72253 40.6715 9.09548 37.9744 11.7928L35.7685 13.999L26.0007 4.23125L28.2061 2.02565Z" fill="#212121"/>
</svg>
