<svg width="28" height="14" viewBox="0 0 28 14" fill="none" xmlns="http://www.w3.org/2000/svg">
<path d="M0.885 14V3.32H3.885V14H0.885ZM3.315 10.205V7.715H8.565V10.205H3.315ZM3.315 5.81V3.32H8.79V5.81H3.315Z" fill="#0787C1"/>
<path d="M20.4683 14V11.84H22.4333C22.8133 11.84 23.1183 11.74 23.3483 11.54C23.5783 11.33 23.6933 11.045 23.6933 10.685C23.6933 10.445 23.6383 10.24 23.5283 10.07C23.4283 9.89 23.2833 9.755 23.0933 9.665C22.9133 9.575 22.6933 9.53 22.4333 9.53H20.4683V7.46H22.2983C22.6183 7.46 22.8833 7.38 23.0933 7.22C23.3033 7.06 23.4083 6.81 23.4083 6.47C23.4083 6.13 23.3033 5.88 23.0933 5.72C22.8833 5.56 22.6183 5.48 22.2983 5.48H20.4683V3.32H23.1383C23.7883 3.32 24.3533 3.445 24.8333 3.695C25.3233 3.935 25.7033 4.27 25.9733 4.7C26.2433 5.12 26.3783 5.605 26.3783 6.155C26.3783 6.915 26.1083 7.535 25.5683 8.015C25.0283 8.495 24.2383 8.77 23.1983 8.84L23.1683 7.805C24.2983 7.875 25.1633 8.185 25.7633 8.735C26.3633 9.285 26.6633 9.99 26.6633 10.85C26.6633 11.47 26.5083 12.02 26.1983 12.5C25.8883 12.97 25.4533 13.34 24.8933 13.61C24.3433 13.87 23.6983 14 22.9583 14H20.4683ZM18.0383 14V3.32H20.9783V14H18.0383Z" fill="#E65014"/>
<path d="M11.435 11V0.32H14.435V11H11.435ZM8.24 2.87V0.32H17.645V2.87H8.24Z" fill="#9FC41E"/>
</svg>
