<svg width="28" height="28" viewBox="0 0 28 28" fill="none" xmlns="http://www.w3.org/2000/svg">
<path d="M9 14C9 12.6074 9.0779 11.2657 9.22194 10H18.7781C18.9221 11.2657 19 12.6074 19 14C19 15.3926 18.9221 16.7343 18.7781 18H9.22194C9.0779 16.7343 9 15.3926 9 14ZM7.20981 18C7.07254 16.7196 7 15.3786 7 14C7 12.6214 7.07253 11.2804 7.2098 10H0.579757C0.202555 11.2674 0 12.6101 0 14C0 15.39 0.202555 16.7326 0.579757 18H7.20981ZM1.34726 20H7.48459C7.79887 21.8596 8.25643 23.5469 8.82888 24.978C9.19756 25.8997 9.6221 26.7358 10.1012 27.4499C6.23033 26.3298 3.04983 23.584 1.34726 20ZM9.51495 20H18.4851C18.1955 21.5993 17.7954 23.0322 17.3142 24.2352C16.7992 25.5227 16.2109 26.4975 15.6089 27.1341C15.0089 27.7686 14.4649 28 14 28C13.5351 28 12.9911 27.7686 12.3911 27.1341C11.7891 26.4975 11.2008 25.5227 10.6858 24.2352C10.2046 23.0322 9.80447 21.5993 9.51495 20ZM20.5154 20C20.2011 21.8596 19.7436 23.5469 19.1711 24.978C18.8024 25.8997 18.3779 26.7358 17.8988 27.4499C21.7697 26.3298 24.9502 23.584 26.6527 20H20.5154ZM27.4202 18C27.7974 16.7326 28 15.39 28 14C28 12.6101 27.7974 11.2674 27.4202 10H20.7902C20.9275 11.2804 21 12.6214 21 14C21 15.3786 20.9275 16.7196 20.7902 18H27.4202ZM17.3142 3.76479C17.7954 4.96781 18.1955 6.40075 18.4851 8.00001H9.51495C9.80446 6.40075 10.2046 4.96781 10.6858 3.76479C11.2008 2.47728 11.7891 1.50246 12.3911 0.86588C12.989 0.233604 13.5314 0.00160416 13.9952 5.58378e-06L14 4.76837e-06L14.0027 0C14.467 0.000902744 15.0101 0.232647 15.6089 0.86588C16.2109 1.50246 16.7992 2.47728 17.3142 3.76479ZM20.5154 8.00001H26.6527C24.9502 4.41602 21.7697 1.67018 17.8988 0.550075C18.3779 1.26419 18.8024 2.10032 19.1711 3.02201C19.7436 4.45315 20.2011 6.14037 20.5154 8.00001ZM1.34726 8.00001H7.48459C7.79887 6.14037 8.25642 4.45315 8.82888 3.02201C9.19756 2.10032 9.62209 1.26419 10.1012 0.550075C6.23032 1.67018 3.04983 4.41602 1.34726 8.00001Z" fill="#212121"/>
</svg>
