<svg width="16" height="16" viewBox="0 0 16 16" fill="none" xmlns="http://www.w3.org/2000/svg">
<path d="M1 0C0.447715 0 0 0.447715 0 1V3C0 3.55228 0.447715 4 1 4H6C6.55228 4 7 3.55228 7 3V1C7 0.447715 6.55229 0 6 0H1ZM1 6C0.447715 6 0 6.44772 0 7V9C0 9.55228 0.447715 10 1 10H6C6.55228 10 7 9.55228 7 9V7C7 6.44772 6.55229 6 6 6H1ZM1 12C0.447715 12 0 12.4477 0 13V15C0 15.5523 0.447715 16 1 16H6C6.55228 16 7 15.5523 7 15V13C7 12.4477 6.55229 12 6 12H1ZM10 0C9.44771 0 9 0.447715 9 1V3C9 3.55228 9.44771 4 10 4H15C15.5523 4 16 3.55228 16 3V1C16 0.447715 15.5523 0 15 0H10ZM10 6C9.44771 6 9 6.44772 9 7V9C9 9.55228 9.44771 10 10 10H15C15.5523 10 16 9.55228 16 9V7C16 6.44772 15.5523 6 15 6H10Z" fill="#212121"/>
</svg>
