<svg width="20" height="21" viewBox="0 0 20 21" fill="none" xmlns="http://www.w3.org/2000/svg">
<path d="M10 0C15.5228 0 20 4.47715 20 10C20 15.5228 15.5228 20 10 20C8.35956 20 6.77516 19.6039 5.35578 18.8583L1.06538 19.9753C0.611098 20.0937 0.146904 19.8213 0.0285757 19.367C-0.00801405 19.2266 -0.00801832 19.0791 0.0285473 18.9386L1.1449 14.6502C0.397199 13.2294 0 11.6428 0 10C0 4.47715 4.47715 0 10 0ZM10 13.5C9.44772 13.5 9 13.9477 9 14.5C9 15.0523 9.44772 15.5 10 15.5C10.5523 15.5 11 15.0523 11 14.5C11 13.9477 10.5523 13.5 10 13.5ZM10 4.75C8.48122 4.75 7.25 5.98122 7.25 7.5C7.25 7.91421 7.58579 8.25 8 8.25C8.3797 8.25 8.69349 7.96785 8.74315 7.60177L8.75645 7.37219C8.82047 6.74187 9.35279 6.25 10 6.25C10.6904 6.25 11.25 6.80964 11.25 7.5C11.25 8.03882 11.115 8.30526 10.6051 8.8322L10.3011 9.14142C9.54754 9.92596 9.25 10.4892 9.25 11.5C9.25 11.9142 9.58579 12.25 10 12.25C10.4142 12.25 10.75 11.9142 10.75 11.5C10.75 10.9612 10.885 10.6947 11.3949 10.1678L11.6989 9.85858C12.4525 9.07404 12.75 8.51075 12.75 7.5C12.75 5.98122 11.5188 4.75 10 4.75Z" fill="#212121"/>
</svg>
