<svg width="20" height="26" viewBox="0 0 20 26" fill="none" xmlns="http://www.w3.org/2000/svg">
<path d="M9.03291 13.961C9.03291 13.961 7.58531 11.1681 7.63878 9.1273C7.67779 7.66894 10.962 6.22734 12.2513 4.13408C13.5385 2.03968 12.0908 0 12.0908 0C12.0908 0 12.4129 1.50409 11.5548 3.05954C10.6967 4.61722 7.52951 5.53104 6.29812 8.2157C5.06673 10.9004 9.03291 13.961 9.03291 13.961Z" fill="white"/>
<path d="M14.4511 5.47635C14.4511 5.47635 9.51758 7.3565 9.51758 9.5033C9.51758 11.6523 10.8571 12.3497 11.0733 13.0471C11.2873 13.7467 10.6978 14.9273 10.6978 14.9273C10.6978 14.9273 12.628 13.5849 12.3048 12.0273C11.9827 10.4696 10.4816 9.98535 11.3408 8.42995C11.9147 7.38665 14.4511 5.47635 14.4511 5.47635Z" fill="white"/>
<path d="M8.4977 16.7985C13.0568 16.6356 14.7195 15.1951 14.7195 15.1951C11.7708 15.9996 3.93978 15.9471 3.88517 15.3569C3.83278 14.7666 6.29789 14.2823 6.29789 14.2823C6.29789 14.2823 2.43757 14.2823 2.1155 15.2486C1.79338 16.2149 3.94195 16.958 8.4977 16.7985Z" fill="white"/>
<path d="M15.0942 19.0613C15.0942 19.0613 19.5563 18.1085 19.115 15.6816C18.5801 12.7269 15.4686 14.3917 15.4686 14.3917C15.4686 14.3917 17.6696 14.3917 17.8824 15.7329C18.0976 17.0752 15.0942 19.0613 15.0942 19.0613Z" fill="white"/>
<path d="M12.8956 17.7737C12.8956 17.7737 11.7711 18.0694 10.1051 18.2568C7.87178 18.5079 5.17155 18.3093 4.95648 17.9332C4.74477 17.5572 5.33202 17.343 5.33202 17.343C2.64962 17.9879 4.11732 19.1138 7.26107 19.3302C9.95572 19.5143 13.9665 18.5246 13.9665 18.5246L12.8956 17.7737Z" fill="white"/>
<path d="M5.97839 20.1191C5.97839 20.1191 4.76146 20.1537 4.69012 20.7987C4.61991 21.4392 5.43902 22.0149 8.44344 22.1935C11.4468 22.372 13.5575 21.3711 13.5575 21.3711L12.199 20.5454C12.199 20.5454 11.3398 20.7262 10.0169 20.9047C8.69303 21.0844 5.97828 20.7608 5.87134 20.512C5.76218 20.2608 5.97839 20.1191 5.97839 20.1191Z" fill="white"/>
<path d="M17.6673 23.0191C18.132 22.517 17.5235 22.1231 17.5235 22.1231C17.5235 22.1231 17.7375 22.3741 17.4544 22.6598C17.168 22.9455 14.557 23.6607 10.3734 23.8761C6.19106 24.0914 1.64982 23.4821 1.50604 22.9455C1.36676 22.4087 3.83181 21.9803 3.83181 21.9803C3.54653 22.016 0.114131 22.0874 0.00491527 23.0191C-0.102079 23.9485 1.50604 24.7006 7.94399 24.7006C14.3787 24.6995 17.2048 23.5178 17.6673 23.0191Z" fill="white"/>
<path d="M15.1655 25.1302C12.3405 25.7015 3.76172 25.3411 3.76172 25.3411C3.76172 25.3411 9.33715 26.6666 15.7015 25.5576C18.7439 25.0264 18.9211 23.5524 18.9211 23.5524C18.9211 23.5524 17.9906 24.5555 15.1655 25.1302Z" fill="white"/>
</svg>
