<svg width="26" height="26" viewBox="0 0 26 26" fill="none" xmlns="http://www.w3.org/2000/svg">
<path fill-rule="evenodd" clip-rule="evenodd" d="M25.5512 16.3164C26.1296 14.1873 26.1687 11.8827 25.5532 9.59888C23.6931 2.69269 16.5568 -1.40611 9.61454 0.444244C4.2561 1.87273 0.578514 6.42779 0.0351562 11.6076H2.23399C2.75703 7.40203 5.77598 3.72965 10.1437 2.56521C15.5417 1.12611 21.0809 4.03012 23.0127 9.1244L20.8727 9.69448C19.8881 7.32464 17.9041 5.58709 15.5544 4.84704L15.1614 7.06464C17.0164 7.746 18.5211 9.28223 19.0715 11.3263C19.8739 14.3052 18.3799 17.3574 15.6692 18.6235L16.2547 20.7981C19.8175 19.3337 21.9579 15.6456 21.4516 11.8438L23.5834 11.2757C23.812 12.728 23.7327 14.1716 23.3874 15.5328L25.5512 16.3164Z" fill="#1BD96A"/>
<path d="M16.3511 25.4548C9.40824 27.3052 2.27247 23.2064 0.411842 16.3002C0.195006 15.4944 0.0594141 14.6861 0 13.8833H2.1973C2.25266 14.4858 2.3598 15.0918 2.52281 15.6957C2.69343 16.3285 2.91738 16.933 3.18856 17.5056L5.1482 16.3346C4.98316 15.9552 4.84402 15.5597 4.73332 15.1484C3.51254 10.6161 6.21613 5.95737 10.7722 4.74286C11.6355 4.5127 12.5039 4.42317 13.3519 4.45908L12.9589 6.67717C12.4277 6.6797 11.8884 6.749 11.3511 6.89215C7.9884 7.789 5.9927 11.2272 6.89356 14.5728C6.94941 14.7787 7.01441 14.9795 7.08855 15.1747L9.59461 13.6769L8.83949 11.6824L11.2059 9.26098L14.1969 8.61908L15.0627 9.68083L13.684 11.0719L12.4815 11.4487L11.6223 12.3284L12.0433 13.4953C12.0433 13.4953 12.8959 14.3978 12.8974 14.3983L14.102 14.0791L14.9591 13.1413L16.8309 12.5509L17.3885 13.8004L15.4573 16.1591L12.221 17.1799L10.7697 15.5703L8.23977 17.0822C9.53672 18.5532 11.4867 19.3701 13.5083 19.1997L14.0938 21.3743C11.0769 21.7718 8.13008 20.528 6.29941 18.2426L4.3489 19.4081C6.91895 22.7714 11.3669 24.4376 15.7224 23.2767C18.8576 22.4411 21.2977 20.3125 22.619 17.6225L24.7843 18.4065C23.2157 21.7592 20.2221 24.4229 16.3511 25.4548Z" fill="#1BD96A"/>
</svg>
