<svg width="24" height="20" viewBox="0 0 24 20" fill="none" xmlns="http://www.w3.org/2000/svg">
<path d="M20 1.75V16.5C20 16.7761 20.2239 17 20.5 17C20.7455 17 20.9496 16.8231 20.9919 16.5899L21 16.5V3H22.25C23.1682 3 23.9212 3.70711 23.9942 4.60647L24 4.75V16.75C24 18.483 22.6435 19.8992 20.9344 19.9949L20.75 20H3.25C1.51697 20 0.100754 18.6435 0.00514483 16.9344L0 16.75V1.75C0 0.831827 0.70711 0.0788077 1.60647 0.0058012L1.75 0H18.25C19.1682 0 19.9212 0.70711 19.9942 1.60647L20 1.75V16.5V1.75ZM7.74653 9.00347H5.25C4.33183 9.00347 3.57881 9.71058 3.5058 10.6099L3.5 10.7535V13.25C3.5 14.1682 4.20711 14.9212 5.10647 14.9942L5.25 15H7.74653C8.6647 15 9.41772 14.2929 9.49073 13.3935L9.49653 13.25V10.7535C9.49653 9.8353 8.78942 9.08228 7.89005 9.00927L7.74653 9.00347ZM15.75 13.5H12.25L12.1482 13.5068C11.7822 13.5565 11.5 13.8703 11.5 14.25C11.5 14.6297 11.7822 14.9435 12.1482 14.9932L12.25 15H15.75L15.8518 14.9932C16.2178 14.9435 16.5 14.6297 16.5 14.25C16.5 13.8703 16.2178 13.5565 15.8518 13.5068L15.75 13.5ZM5.25 10.5035H7.74653C7.86487 10.5035 7.96401 10.5857 7.98992 10.6961L7.99653 10.7535V13.25C7.99653 13.3683 7.91429 13.4675 7.80385 13.4934L7.74653 13.5H5.25C5.13165 13.5 5.03251 13.4178 5.0066 13.3073L5 13.25V10.7535C5 10.6351 5.08223 10.536 5.19268 10.5101L5.25 10.5035H7.74653H5.25ZM15.75 9.00347H12.25L12.1482 9.01032C11.7822 9.05998 11.5 9.37378 11.5 9.75347C11.5 10.1332 11.7822 10.447 12.1482 10.4966L12.25 10.5035H15.75L15.8518 10.4966C16.2178 10.447 16.5 10.1332 16.5 9.75347C16.5 9.37378 16.2178 9.05998 15.8518 9.01032L15.75 9.00347ZM15.75 4.49666H4.25L4.14823 4.5035C3.78215 4.55317 3.5 4.86696 3.5 5.24666C3.5 5.62635 3.78215 5.94015 4.14823 5.98981L4.25 5.99666H15.75L15.8518 5.98981C16.2178 5.94015 16.5 5.62635 16.5 5.24666C16.5 4.86696 16.2178 4.55317 15.8518 4.5035L15.75 4.49666Z" fill="#212121"/>
</svg>
