<svg width="32" height="40" viewBox="0 0 32 40" fill="none" xmlns="http://www.w3.org/2000/svg">
<path d="M16 0C10.4772 0 6 4.47715 6 10C6 15.5228 10.4772 20 16 20C21.5228 20 26 15.5228 26 10C26 4.47715 21.5228 0 16 0ZM4.24988 24C1.90326 24 2.0504e-05 25.9013 2.74181e-06 28.2489L0 29C0 32.7555 1.94167 35.5669 4.92017 37.3802C7.84908 39.1633 11.7861 40 16 40C20.2139 40 24.1509 39.1633 27.0798 37.3802C30.0583 35.5669 32 32.7555 32 29L32 28.2487C32 25.9011 30.0967 24 27.7502 24H4.24988Z" fill="#212121"/>
</svg>
