<svg width="40" height="40" viewBox="0 0 40 40" fill="none" xmlns="http://www.w3.org/2000/svg">
<path d="M15.4952 39.467C16.9737 39.8198 18.4883 39.998 20.0082 39.998C21.5249 39.9964 23.0362 39.8172 24.5112 39.464C24.899 39.3706 25.2486 39.16 25.5123 38.8608C25.7761 38.5616 25.9412 38.1884 25.9852 37.792L26.3232 34.721C26.3804 34.1718 26.6316 33.6611 27.0318 33.2807C27.432 32.9003 27.9549 32.6752 28.5062 32.646C28.8728 32.6301 29.2382 32.6986 29.5742 32.846L32.3812 34.077C32.6253 34.1867 32.8896 34.2443 33.1572 34.246C33.4248 34.2477 33.6898 34.1936 33.9352 34.087C34.1817 33.9817 34.4032 33.8257 34.5852 33.629C36.6492 31.4043 38.1901 28.7466 39.0953 25.85C39.2138 25.4657 39.21 25.0542 39.0847 24.6721C38.9593 24.2901 38.7184 23.9563 38.3952 23.717L35.9013 21.877C35.6042 21.6613 35.3624 21.3783 35.1957 21.0512C35.029 20.7241 34.9421 20.3622 34.9421 19.995C34.9421 19.6279 35.029 19.2659 35.1957 18.9388C35.3624 18.6117 35.6042 18.3288 35.9013 18.113L38.3872 16.277C38.7114 16.0374 38.9529 15.7028 39.0783 15.3197C39.2038 14.9366 39.2069 14.524 39.0872 14.139C38.1818 11.2421 36.6391 8.58468 34.5722 6.362C34.2984 6.06931 33.9405 5.86884 33.5478 5.78824C33.1552 5.70763 32.7473 5.75089 32.3803 5.91202L29.5742 7.14801C29.2831 7.27918 28.9675 7.34734 28.6482 7.34802C28.0721 7.34714 27.5165 7.13352 27.0882 6.74817C26.6598 6.36282 26.3889 5.83288 26.3272 5.26001L25.9873 2.20001C25.9437 1.79839 25.7757 1.42041 25.5068 1.11899C25.2378 0.81757 24.8813 0.607801 24.4873 0.519012C23.02 0.191442 21.5225 0.017492 20.0192 0C18.5053 0.0174802 16.9973 0.191763 15.5192 0.52002C15.1256 0.608303 14.7694 0.817387 14.5004 1.11807C14.2315 1.41876 14.0633 1.79601 14.0192 2.19702L13.6782 5.259C13.6144 5.83248 13.3413 6.36227 12.9112 6.74701C12.472 7.12007 11.9184 7.33178 11.3422 7.34702C11.0245 7.3468 10.7102 7.28075 10.4192 7.15302L7.61924 5.91702C7.25103 5.75445 6.84131 5.71059 6.44704 5.7916C6.05277 5.8726 5.69353 6.07444 5.41924 6.36902C3.35497 8.59214 1.81372 11.2486 0.90824 14.144C0.788667 14.5288 0.791811 14.9413 0.917243 15.3242C1.04268 15.7071 1.28417 16.0415 1.60824 16.281L4.09724 18.117C4.39186 18.3346 4.63144 18.6181 4.79676 18.9449C4.96208 19.2718 5.04856 19.6328 5.04925 19.999C5.04958 20.3659 4.96358 20.7277 4.79819 21.0551C4.63281 21.3826 4.39268 21.6665 4.09724 21.884L1.60725 23.723C1.28358 23.9624 1.04234 24.2964 0.916923 24.6789C0.791508 25.0614 0.788115 25.4735 0.907233 25.858C1.81076 28.7562 3.3518 31.4152 5.41724 33.64C5.59666 33.8342 5.81464 33.9889 6.05724 34.094C6.30199 34.2016 6.56641 34.2571 6.83375 34.2571C7.10108 34.2571 7.36549 34.2016 7.61024 34.094L10.4292 32.857C10.7201 32.7288 11.0344 32.6628 11.3522 32.663H11.3602C11.9341 32.6638 12.4876 32.8755 12.9154 33.258C13.3432 33.6404 13.6154 34.1668 13.6802 34.737L14.0182 37.794C14.0624 38.1909 14.2279 38.5646 14.4923 38.864C14.7566 39.1634 15.1068 39.374 15.4952 39.467ZM20.001 26.249C16.5492 26.249 13.751 23.4508 13.751 19.999C13.751 16.5472 16.5492 13.749 20.001 13.749C23.4528 13.749 26.251 16.5472 26.251 19.999C26.251 23.4508 23.4528 26.249 20.001 26.249Z" fill="#212121"/>
</svg>
