<svg width="16" height="20" viewBox="0 0 16 20" fill="none" xmlns="http://www.w3.org/2000/svg">
<path d="M1.26221 1.5H14.7599C15.1741 1.5 15.5099 1.16421 15.5099 0.75C15.5099 0.370304 15.2277 0.056509 14.8617 0.00684738L14.7599 0H1.26221C0.847993 0 0.512207 0.335787 0.512207 0.75C0.512207 1.1297 0.794361 1.44349 1.16044 1.49315L1.26221 1.5ZM7.89559 19.9977L8.01221 20.0044C8.52504 20.0044 8.94771 19.6184 9.00548 19.121L9.01221 19.0044V6.4144L12.3063 9.70718C12.6668 10.0676 13.234 10.0953 13.6263 9.79023L13.7205 9.70703C14.0809 9.34651 14.1086 8.77928 13.8035 8.38702L13.7203 8.29282L8.72269 3.29621C8.36237 2.93596 7.79551 2.90809 7.40324 3.21272L7.30903 3.2958L2.30558 8.29241C1.91479 8.68267 1.91436 9.31583 2.30462 9.70662C2.66486 10.0674 3.23207 10.0955 3.62457 9.79071L3.71883 9.70759L7.01221 6.4194V19.0044C7.01221 19.5172 7.39825 19.9399 7.89559 19.9977Z" fill="white"/>
</svg>
