<svg width="17" height="17" viewBox="0 0 17 17" fill="none" xmlns="http://www.w3.org/2000/svg">
<path d="M12.5005 0C10.0152 0 8.0005 2.01472 8.0005 4.5C8.0005 4.79343 8.02865 5.08069 8.0825 5.35911L1.65706 12.0184C0.692706 13.0178 0.79703 14.6302 1.88214 15.497C2.82471 16.25 4.18364 16.1698 5.03113 15.3113L11.3959 8.86331C11.7498 8.95264 12.1199 9 12.5005 9C14.9858 9 17.0005 6.98528 17.0005 4.5C17.0005 4.15299 16.9611 3.81456 16.8864 3.48916C16.8457 3.31191 16.712 3.17074 16.5372 3.12051C16.3624 3.07029 16.1741 3.11892 16.0455 3.24751L13.5003 5.79269L11.208 3.49994L13.753 0.954957C13.8815 0.826363 13.9302 0.638088 13.8799 0.463303C13.8297 0.288518 13.6885 0.154788 13.5113 0.114087C13.1859 0.0393676 12.8475 0 12.5005 0Z" fill="#212121"/>
</svg>
